<?xml version="1.0" encoding="UTF-8"?>
<svg width="1200pt" height="1200pt" version="1.1" viewBox="0 0 1200 1200" xmlns="http://www.w3.org/2000/svg">
 <g>
  <path d="m947.43 576.29v-161.89l-64.289 36.164v134.3z"/>
  <path d="m640.61 262.5h-184.46v166.08h167.85z"/>
  <path d="m252.57 323.57h43.926v64.289h-43.926z"/>
  <path d="m531.43 550.71 35.211-35.211c3.5156-3.5156 8.2773-5.4922 13.258-5.4922h41.82v-43.926h-184.31c-10.363 0-18.75-8.3867-18.75-18.75v-21.973h-227.14v125.36z"/>
  <path d="m395.07 669.64h227.16v23.586h-227.16z"/>
  <path d="m622.23 632.14v-62.691c-0.26953-1.2695-0.51172-2.5547-0.51172-3.8867v-18.055h-34.059l-35.211 35.211c-3.5156 3.5156-8.2773 5.4922-13.258 5.4922h-347.68v43.926h184.81z"/>
  <path d="m661.31 730.69h-407.06c-57 0-103.5 46.5-103.5 103.5s46.5 103.31 103.5 103.31h407.06c57 0 103.5-46.312 103.5-103.31s-46.5-103.5-103.5-103.5zm-366.38 183.19c-44.062 0-79.875-35.812-79.875-79.688 0-44.062 35.812-79.875 79.875-79.875s79.875 35.812 79.875 79.875c0 43.875-35.812 79.688-79.875 79.688zm162.75 0c-43.875 0-79.688-35.812-79.688-79.688 0-44.062 35.812-79.875 79.688-79.875 44.062 0 79.875 35.812 79.875 79.875 0 43.875-35.812 79.688-79.875 79.688zm162.94 0c-44.062 0-79.875-35.812-79.875-79.688 0-44.062 35.812-79.875 79.875-79.875s79.875 35.812 79.875 79.875c0 43.875-35.812 79.688-79.875 79.688z"/>
  <path d="m947.43 351.21c0-12.379-6.3711-23.492-17.066-29.754-10.711-6.2422-23.527-6.3906-34.312-0.27344l-236.32 132.92v79.102l270.12-151.93c10.84-6.1211 17.578-17.637 17.578-30.07z"/>
  <path d="m578.29 834.1c0 23.348 18.988 42.336 42.336 42.336 23.328 0 42.316-18.988 42.316-42.336 0-23.328-18.988-42.316-42.316-42.316-23.348 0-42.336 18.988-42.336 42.316z"/>
  <path d="m999.19 607.21-116.05 15.473v38.359c0 60.48 49.219 109.7 109.7 109.7h56.379v-37.867c-37.355-18.035-47.352-89.465-50.027-125.66z"/>
  <path d="m294.89 791.79c-23.328 0-42.316 18.988-42.316 42.316 0 23.348 18.988 42.336 42.316 42.336 23.348 0 42.336-18.988 42.336-42.336 0-23.328-18.988-42.316-42.336-42.316z"/>
  <path d="m457.77 791.79c-23.348 0-42.336 18.988-42.336 42.316 0 23.348 18.988 42.336 42.336 42.336 23.328 0 42.316-18.988 42.316-42.336-0.003906-23.328-18.992-42.316-42.316-42.316z"/>
 </g>
</svg>
